<?xml version="1.0" encoding="iso-8859-1"?>
<!-- Generator: Adobe Illustrator 19.0.0, SVG Export Plug-In . SVG Version: 6.00 Build 0)  -->
<svg version="1.1" id="Layer_1" xmlns="http://www.w3.org/2000/svg" xmlns:xlink="http://www.w3.org/1999/xlink" x="0px" y="0px"
	 viewBox="0 0 512 512" style="enable-background:new 0 0 512 512;" xml:space="preserve">
<g>
	<g>
		<g>
			<path d="M498.005,232.982h-65.199h-74.337c-17.791-21.995-42.182-38.443-70.154-46.251v-23.482
				c0-14.453-11.362-26.301-25.624-27.083V11.388c0-6.29-5.099-11.388-11.388-11.388s-11.388,5.099-11.388,11.388v124.778
				c-14.262,0.784-25.624,12.63-25.624,27.083v23.482c-27.971,7.808-52.363,24.256-70.154,46.251H79.194H13.995
				c-6.29,0-11.388,5.099-11.388,11.388v64.06v64.06v64.06v64.06c0,6.29,5.099,11.388,11.388,11.388h121.003H256h121.003h121.003
				c6.29,0,11.388-5.099,11.388-11.388v-64.06v-64.06v-64.06v-64.06C509.394,238.081,504.295,232.982,498.005,232.982z
				 M421.419,255.759v41.283h-0.001h-34.146c-2.413-14.667-7.16-28.553-13.829-41.283H421.419z M237.066,163.249h0.001
				c0-2.398,1.952-4.35,4.35-4.35h19.769c2.398,0,4.35,1.951,4.35,4.35v19.159c-4.681-0.483-9.43-0.732-14.236-0.732
				s-9.555,0.249-14.236,0.732V163.249z M90.582,255.759h38.581c-6.67,12.73-11.417,26.616-13.83,41.283H90.582V255.759z
				 M25.383,255.759h42.422v41.283H25.383V255.759z M25.383,319.819h53.811h34.303c0.034,14.38,2.286,28.248,6.423,41.283H79.194
				H25.383V319.819z M25.383,383.88h42.422v41.283H25.383V383.88z M123.609,489.223H25.383V447.94h53.811h44.415V489.223z
				 M90.582,425.163V383.88h38.912c8.408,15.841,19.814,29.856,33.461,41.283h-27.958H90.582z M244.612,489.223h-98.226V447.94
				h44.415h10.595c13.509,5.267,28.044,8.462,43.216,9.191V489.223z M251.302,434.518c-63.429,0-115.033-51.603-115.033-115.033
				s51.604-115.033,115.033-115.033s115.033,51.604,115.033,115.033S314.732,434.518,251.302,434.518z M365.614,489.223h-98.226
				v-32.872c11.788-1.377,23.127-4.242,33.82-8.412h10.595h53.811V489.223z M339.65,425.163
				c13.647-11.427,25.052-25.442,33.461-41.283h3.893h44.415v41.283h-44.415H339.65z M486.617,489.223h-98.226V447.94h44.415h53.811
				V489.223z M486.617,425.163h-42.422V383.88h42.422V425.163z M486.617,361.103h-53.811h-44.415v-27.478
				c0.465-4.541,0.705-9.146,0.716-13.805h43.699h53.811V361.103z M486.617,297.042h-42.422v-41.283h42.422V297.042z"/>
			<path d="M268.82,386.729c-5.689,1.484-11.582,2.236-17.518,2.236c-6.29,0-11.388,5.099-11.388,11.388
				c0,6.29,5.099,11.388,11.388,11.388c7.873,0,15.7-1,23.264-2.971c6.086-1.588,9.734-7.807,8.147-13.894
				C281.126,388.79,274.907,385.145,268.82,386.729z"/>
			<path d="M332.168,308.098c-6.29,0-11.388,5.099-11.388,11.388c0,18.799-7.422,36.42-20.899,49.619
				c-4.494,4.401-4.569,11.611-0.169,16.104c2.231,2.278,5.184,3.42,8.138,3.42c2.874,0,5.752-1.082,7.967-3.251
				c17.888-17.518,27.739-40.919,27.739-65.892C343.557,313.197,338.458,308.098,332.168,308.098z"/>
		</g>
	</g>
</g>
<g>
</g>
<g>
</g>
<g>
</g>
<g>
</g>
<g>
</g>
<g>
</g>
<g>
</g>
<g>
</g>
<g>
</g>
<g>
</g>
<g>
</g>
<g>
</g>
<g>
</g>
<g>
</g>
<g>
</g>
</svg>
